# Blender v2.82 (sub 7) OBJ File: 'StandingSign.blend'
# www.blender.org
mtllib StandingSign.mtl
o StandingSign_Plane
v -0.377050 0.008095 0.344567
v 0.377050 0.008095 0.344567
v -0.314208 0.950719 0.093201
v 0.314208 0.950719 0.093201
v -0.209472 0.054048 0.332313
v 0.209472 0.054048 0.332313
v 0.209472 0.962012 0.087567
v -0.209472 0.962012 0.087567
v -0.348938 0.885176 0.110679
v 0.348938 0.885176 0.110679
v -0.223139 0.867979 0.089251
v 0.223139 0.867979 0.089251
v -0.223139 0.094497 0.295512
v 0.223139 0.094497 0.295512
v -0.229450 0.095406 0.321284
v -0.229450 0.880022 0.112053
v 0.229450 0.095406 0.321284
v 0.229450 0.880022 0.112053
v 0.303541 0.537216 0.203468
v -0.229450 0.356945 0.251541
v -0.229450 0.618483 0.181797
v 0.229450 0.356945 0.251541
v 0.229450 0.618483 0.181797
v -0.303541 0.537216 0.203468
v -0.223139 0.285049 0.244698
v -0.223139 0.686351 0.137685
v 0.223139 0.285049 0.244698
v 0.223139 0.686351 0.137685
v -0.377050 -0.008095 0.283849
v 0.377050 -0.008095 0.283849
v -0.314208 0.934529 0.032482
v 0.314208 0.934529 0.032482
v -0.209472 0.037858 0.271595
v 0.209472 0.037858 0.271595
v 0.209472 0.923236 0.038116
v -0.209472 0.923236 0.038116
v -0.348938 0.868985 0.049960
v 0.348938 0.868985 0.049960
v 0.303541 0.521026 0.142750
v -0.303541 0.521026 0.142750
v -0.377050 0.008095 -0.344567
v 0.377050 0.008095 -0.344567
v -0.314208 0.950719 -0.093201
v 0.314208 0.950719 -0.093201
v -0.209472 0.054048 -0.332313
v 0.209472 0.054048 -0.332313
v 0.209472 0.962012 -0.087567
v -0.209472 0.962012 -0.087567
v -0.348938 0.885176 -0.110679
v 0.348938 0.885176 -0.110679
v -0.223139 0.867979 -0.089251
v 0.223139 0.867979 -0.089251
v -0.223139 0.094497 -0.295512
v 0.223139 0.094497 -0.295512
v -0.229450 0.095406 -0.321284
v -0.229450 0.880022 -0.112053
v 0.229450 0.095406 -0.321284
v 0.229450 0.880022 -0.112053
v 0.303541 0.537216 -0.203468
v -0.229450 0.356945 -0.251541
v -0.229450 0.618483 -0.181797
v 0.229450 0.356945 -0.251541
v 0.229450 0.618483 -0.181797
v -0.303541 0.537216 -0.203468
v -0.223139 0.280453 -0.245924
v -0.223139 0.690020 -0.136706
v 0.223139 0.280453 -0.245924
v 0.223139 0.690020 -0.136706
v -0.377050 -0.008095 -0.283849
v 0.377050 -0.008095 -0.283849
v -0.314208 0.934529 -0.032482
v 0.314208 0.934529 -0.032482
v -0.209472 0.037858 -0.271595
v 0.209472 0.037858 -0.271595
v 0.209472 0.923236 -0.038116
v -0.209472 0.923236 -0.038116
v -0.348938 0.868985 -0.049960
v 0.348938 0.868985 -0.049960
v 0.303541 0.521026 -0.142750
v -0.303541 0.521026 -0.142750
v -0.229450 0.095406 0.321284
v -0.229450 0.880022 0.112053
v 0.229450 0.095406 0.321284
v 0.229450 0.880022 0.112053
v -0.229450 0.356945 0.251541
v -0.229450 0.618483 0.181797
v 0.229450 0.356945 0.251541
v 0.229450 0.618483 0.181797
v -0.256661 0.069868 0.328094
v -0.256661 0.905560 0.105243
v 0.256661 0.069868 0.328094
v 0.256661 0.905560 0.105243
v -0.256661 0.348432 0.253811
v -0.256661 0.626996 0.179527
v 0.256661 0.348432 0.253811
v 0.256661 0.626996 0.179527
v -0.229450 0.623872 0.202004
v -0.229450 0.885411 0.132260
v 0.229450 0.623872 0.202004
v 0.229450 0.885411 0.132260
v 0.229450 0.100794 0.341491
v -0.229450 0.100794 0.341491
v -0.229450 0.362333 0.271748
v 0.229450 0.362333 0.271748
v -0.256661 0.632384 0.199734
v -0.256661 0.910948 0.125450
v 0.256661 0.632384 0.199734
v 0.256661 0.910948 0.125450
v 0.256661 0.075257 0.348301
v -0.256661 0.075257 0.348301
v -0.256661 0.353821 0.274018
v 0.256661 0.353821 0.274018
v -0.229450 0.095406 -0.321284
v -0.229450 0.880022 -0.112053
v 0.229450 0.095406 -0.321284
v 0.229450 0.880022 -0.112053
v -0.229450 0.356945 -0.251541
v -0.229450 0.618483 -0.181797
v 0.229450 0.356945 -0.251541
v 0.229450 0.618483 -0.181797
v -0.256661 0.069868 -0.328094
v -0.256661 0.905560 -0.105243
v 0.256661 0.069868 -0.328094
v 0.256661 0.905560 -0.105243
v -0.256661 0.348432 -0.253811
v -0.256661 0.626996 -0.179527
v 0.256661 0.348432 -0.253811
v 0.256661 0.626996 -0.179527
v -0.229450 0.623872 -0.202004
v -0.229450 0.885411 -0.132260
v 0.229450 0.623872 -0.202004
v 0.229450 0.885411 -0.132260
v 0.229450 0.100794 -0.341491
v -0.229450 0.100794 -0.341491
v -0.229450 0.362333 -0.271748
v 0.229450 0.362333 -0.271748
v -0.256661 0.632384 -0.199734
v -0.256661 0.910948 -0.125450
v 0.256661 0.632384 -0.199734
v 0.256661 0.910948 -0.125450
v 0.256661 0.075257 -0.348301
v -0.256661 0.075257 -0.348301
v -0.256661 0.353821 -0.274018
v 0.256661 0.353821 -0.274018
v -0.314208 0.923236 -0.054296
v 0.314208 0.923236 -0.054296
v -0.314208 0.876214 -0.027148
v 0.314208 0.876214 -0.027148
v -0.314208 0.876214 0.027148
v 0.314208 0.876214 0.027148
v -0.314208 0.923236 0.054296
v 0.314208 0.923236 0.054296
v -0.314208 0.970258 0.027148
v 0.314208 0.970258 0.027148
v -0.314208 0.970258 -0.027148
v 0.314208 0.970258 -0.027148
vt 0.046342 0.939946
vt 0.046128 0.945767
vt 0.043306 0.944305
vt 0.043327 0.939947
vt 0.046134 0.917091
vt 0.046337 0.922908
vt 0.043323 0.922901
vt 0.043312 0.918546
vt 0.976820 0.425666
vt 0.976874 0.479394
vt 0.951104 0.479334
vt 0.951088 0.425674
vt 0.052183 0.917833
vt 0.057756 0.922924
vt 0.057775 0.939953
vt 0.052185 0.945037
vt 0.082269 0.939989
vt 0.084234 0.944352
vt 0.064264 0.943521
vt 0.080509 0.939985
vt 0.084234 0.918574
vt 0.082263 0.922936
vt 0.080503 0.922937
vt 0.064250 0.919370
vt 0.054535 0.923163
vt 0.046612 0.923165
vt 0.071891 0.939727
vt 0.080234 0.939727
vt 0.069051 0.939966
vt 0.046616 0.939689
vt 0.080228 0.923195
vt 0.054552 0.939707
vt 0.071872 0.923179
vt 0.069031 0.922934
vt 0.954443 0.361791
vt 0.954465 0.415479
vt 0.927370 0.415479
vt 0.927307 0.361737
vt 0.103471 0.139179
vt 0.896529 0.139180
vt 0.896529 0.877234
vt 0.103471 0.877234
vt 0.023959 0.056808
vt 0.041964 0.053277
vt 0.041958 0.036224
vt 0.988531 0.029902
vt 0.968547 0.030698
vt 0.968547 0.030698
vt 0.988531 0.029902
vt 0.082269 0.939989
vt 0.084234 0.944352
vt 0.947603 0.055633
vt 0.950425 0.057095
vt 0.950425 0.057095
vt 0.947603 0.055633
vt 0.947608 0.029874
vt 0.947619 0.034229
vt 0.947619 0.034229
vt 0.947608 0.029874
vt 0.084234 0.918574
vt 0.082263 0.922936
vt 0.947624 0.051275
vt 0.947624 0.051275
vt 0.950431 0.028420
vt 0.950431 0.028420
vt 0.956482 0.056365
vt 0.956482 0.056365
vt 0.968561 0.054849
vt 0.988531 0.055681
vt 0.988531 0.055681
vt 0.968561 0.054849
vt 0.956479 0.029161
vt 0.956479 0.029161
vt 0.046342 0.939946
vt 0.043327 0.939947
vt 0.043306 0.944305
vt 0.046128 0.945767
vt 0.046134 0.917091
vt 0.043312 0.918546
vt 0.043323 0.922901
vt 0.046337 0.922908
vt 0.976301 0.425666
vt 0.951088 0.425674
vt 0.951104 0.479334
vt 0.976354 0.479393
vt 0.052183 0.917833
vt 0.057756 0.922924
vt 0.057775 0.939953
vt 0.052185 0.945037
vt 0.082269 0.939989
vt 0.080509 0.939985
vt 0.064264 0.943521
vt 0.084234 0.944352
vt 0.084234 0.918574
vt 0.064250 0.919370
vt 0.080503 0.922937
vt 0.082263 0.922936
vt 0.054375 0.923163
vt 0.046612 0.923165
vt 0.072092 0.939727
vt 0.069051 0.939966
vt 0.080234 0.939727
vt 0.046616 0.939689
vt 0.080228 0.923195
vt 0.054392 0.939707
vt 0.069031 0.922934
vt 0.072073 0.923179
vt 0.954443 0.361791
vt 0.927961 0.361738
vt 0.928023 0.415479
vt 0.954465 0.415479
vt 0.896529 0.130726
vt 0.896528 0.883982
vt 0.103471 0.883982
vt 0.103471 0.130726
vt 0.043929 0.057640
vt 0.011880 0.058325
vt 0.041964 0.053277
vt 0.035393 0.032358
vt 0.035389 0.050875
vt 0.047100 0.049424
vt 0.039298 0.032837
vt 0.041958 0.036224
vt 0.023945 0.032658
vt 0.043929 0.031862
vt 0.039300 0.050404
vt 0.035389 0.050875
vt 0.035393 0.032358
vt 0.047091 0.033830
vt 0.043323 0.922901
vt 0.046128 0.945767
vt 0.046134 0.917091
vt 0.046128 0.945767
vt 0.043323 0.922901
vt 0.046134 0.917091
vt 0.084234 0.918574
vt 0.064250 0.919370
vt 0.084234 0.944352
vt 0.082269 0.939989
vt 0.043306 0.944305
vt 0.043312 0.918546
vt 0.082263 0.922936
vt 0.043327 0.939947
vt 0.052185 0.945037
vt 0.064264 0.943521
vt 0.052183 0.917833
vt 0.000000 0.000000
vt 0.000000 0.000000
vt 0.000000 0.000000
vt 0.000000 0.000000
vt 0.000000 0.000000
vt 0.000000 0.000000
vt 0.000000 0.000000
vt 0.000000 0.000000
vt 0.000000 0.000000
vt 0.000000 0.000000
vt 0.000000 0.000000
vt 0.000000 0.000000
vt 0.000000 0.000000
vt 0.000000 0.000000
vt 0.000000 0.000000
vt 0.000000 0.000000
vt 0.000000 0.000000
vt 0.000000 0.000000
vt 0.000000 0.000000
vt 0.000000 0.000000
vt 0.000000 0.000000
vt 0.000000 0.000000
vt 0.000000 0.000000
vt 0.000000 0.000000
vt 0.000000 0.000000
vt 0.000000 0.000000
vt 0.000000 0.000000
vt 0.000000 0.000000
vt 0.000000 0.000000
vt 0.000000 0.000000
vt 0.000000 0.000000
vt 0.000000 0.000000
vt 0.000000 0.000000
vt 0.000000 0.000000
vt 0.000000 0.000000
vt 0.000000 0.000000
vt 0.000000 0.000000
vt 0.000000 0.000000
vt 0.000000 0.000000
vt 0.000000 0.000000
vt 0.000000 0.000000
vt 0.000000 0.000000
vt 0.000000 0.000000
vt 0.000000 0.000000
vt 0.000000 0.000000
vt 0.000000 0.000000
vt 0.000000 0.000000
vt 0.000000 0.000000
vt 0.000000 0.000000
vt 0.000000 0.000000
vt 0.000000 0.000000
vt 0.000000 0.000000
vt 0.000000 0.000000
vt 0.000000 0.000000
vt 0.000000 0.000000
vt 0.000000 0.000000
vt 0.000000 0.000000
vt 0.000000 0.000000
vt 0.000000 0.000000
vt 0.000000 0.000000
vt 0.000000 0.000000
vt 0.000000 0.000000
vt 0.000000 0.000000
vt 0.000000 0.000000
vt 0.756718 0.036614
vt 0.756718 0.059253
vt 0.749172 0.059253
vt 0.749172 0.036614
vt 0.741626 0.059253
vt 0.741626 0.036614
vt 0.734080 0.059253
vt 0.734080 0.036614
vt 0.726533 0.059253
vt 0.726533 0.036614
vt 0.713350 0.019862
vt 0.722760 0.014429
vt 0.732171 0.019862
vt 0.718987 0.059253
vt 0.718987 0.036614
vt 0.711441 0.059253
vt 0.711441 0.036614
vt 0.745399 0.014429
vt 0.735988 0.019862
vt 0.735988 0.030728
vt 0.043929 0.031862
vt 0.011878 0.031121
vt 0.043929 0.057640
vt 0.043327 0.939947
vt 0.043306 0.944305
vt 0.043312 0.918546
vt 0.732171 0.030728
vt 0.722760 0.036162
vt 0.713350 0.030728
vt 0.745399 0.036162
vt 0.754809 0.030728
vt 0.754809 0.019862
vn -0.0041 0.2703 0.9628
vn -0.0049 0.2631 0.9647
vn -0.0109 0.2698 0.9628
vn -0.0044 0.2796 0.9601
vn 0.0049 0.2631 0.9647
vn 0.0041 0.2703 0.9628
vn 0.0044 0.2796 0.9601
vn 0.0109 0.2698 0.9628
vn 0.0000 0.2577 0.9662
vn 0.9699 0.0627 0.2353
vn -0.9699 0.0627 0.2353
vn 0.0000 -0.8842 0.4670
vn 0.0000 0.9994 -0.0352
vn -0.0000 -0.2577 -0.9662
vn -0.9911 0.1285 -0.0343
vn -1.0000 0.0039 -0.0010
vn -0.2730 -0.9295 0.2479
vn -0.1378 -0.9570 0.2552
vn 0.5274 0.7829 -0.3300
vn 0.9849 0.1672 -0.0446
vn -0.5274 0.7829 -0.3300
vn -0.0000 0.8448 -0.5351
vn 0.0022 0.3652 -0.9309
vn 0.1378 -0.9570 0.2552
vn 0.2730 -0.9295 0.2479
vn -0.0022 0.3652 -0.9309
vn -0.9849 0.1672 -0.0446
vn 1.0000 0.0039 -0.0010
vn 0.9911 0.1285 -0.0343
vn -0.0041 0.2703 -0.9628
vn -0.0044 0.2796 -0.9601
vn -0.0109 0.2698 -0.9628
vn -0.0049 0.2631 -0.9647
vn 0.0049 0.2631 -0.9647
vn 0.0109 0.2698 -0.9628
vn 0.0044 0.2796 -0.9601
vn 0.0041 0.2703 -0.9628
vn 0.0000 0.2577 -0.9662
vn 0.9699 0.0627 -0.2353
vn -0.9699 0.0627 -0.2353
vn 0.0000 -0.8842 -0.4670
vn 0.0000 0.9994 0.0352
vn 0.0000 -0.2577 0.9662
vn 0.0064 -0.2543 -0.9671
vn -0.0064 -0.2543 -0.9671
vn -0.0064 -0.2543 0.9671
vn 0.0064 -0.2543 0.9671
vn 0.0022 0.3652 0.9309
vn -0.9911 0.1285 0.0343
vn -1.0000 0.0039 0.0010
vn -0.2730 -0.9295 -0.2479
vn -0.1378 -0.9570 -0.2552
vn 0.5274 0.7829 0.3300
vn 0.9849 0.1672 0.0446
vn -0.5274 0.7829 0.3300
vn -0.0000 0.8448 0.5351
vn 0.1378 -0.9570 -0.2552
vn 0.2730 -0.9295 -0.2479
vn -0.0022 0.3652 0.9309
vn -0.9849 0.1672 0.0446
vn 1.0000 0.0039 0.0010
vn 0.9911 0.1285 0.0343
vn -1.0000 0.0000 0.0000
vn 1.0000 0.0000 0.0000
vn 0.0000 -0.9662 0.2577
vn 0.0000 0.9662 -0.2577
vn 0.0000 -0.9662 -0.2577
vn 0.0000 0.9662 0.2577
vn 0.0000 0.0000 -1.0000
vn -0.0000 -0.8660 -0.5000
vn -0.0000 -0.8660 0.5000
vn -0.0000 0.0000 1.0000
vn 0.0000 0.8660 0.5000
vn 0.0000 0.8660 -0.5000
vn -0.0228 -0.2689 -0.9629
vn 0.0228 -0.2689 -0.9629
vn -0.0228 -0.2689 0.9629
vn 0.0228 -0.2689 0.9629
usemtl Sign_Mat
s 1
f 18/1/1 10/2/2 4/3/3 7/4/4
f 9/5/5 16/6/6 8/7/7 3/8/8
f 16/6/6 18/1/1 7/4/4 8/7/7
f 26/9/9 28/10/9 12/11/9 11/12/9
f 24/13/9 21/14/9 16/6/6 9/5/5
f 23/15/9 19/16/9 10/2/2 18/1/1
f 6/17/9 2/18/9 19/19/9 17/20/9
f 1/21/9 5/22/9 15/23/9 24/24/9
f 5/22/9 6/17/9 17/20/9 15/23/9
f 26/25/10 11/26/10 16/6/10 21/14/10
f 27/27/11 14/28/11 17/20/11 22/29/11
f 11/26/12 12/30/12 18/1/12 16/6/12
f 14/28/13 13/31/13 15/23/13 17/20/13
f 12/30/11 28/32/11 23/15/11 18/1/11
f 28/32/11 27/27/11 22/29/11 23/15/11
f 13/31/10 25/33/10 20/34/10 15/23/10
f 25/33/10 26/25/10 21/14/10 20/34/10
f 19/16/9 23/15/9 22/29/9 17/20/9
f 13/35/9 14/36/9 27/37/9 25/38/9
f 25/39/9 27/40/9 28/41/9 26/42/9
f 39/43/14 34/44/14 33/45/14
f 1/46/15 24/47/16 40/48/16 29/49/15
f 2/18/17 6/17/18 34/50/18 30/51/17
f 4/52/19 10/53/20 38/54/20 32/55/19
f 3/56/21 8/57/22 36/58/23 31/59/21
f 5/22/24 1/21/25 29/60/25 33/61/24
f 6/17/18 5/22/24 33/61/24 34/50/18
f 7/62/22 4/52/19 32/55/19 35/63/26
f 9/64/27 3/56/21 31/59/21 37/65/27
f 10/53/20 19/66/28 39/67/28 38/54/20
f 19/68/28 2/69/29 30/70/29 39/71/28
f 24/72/16 9/64/27 37/65/27 40/73/16
f 58/74/30 47/75/31 44/76/32 50/77/33
f 49/78/34 43/79/35 48/80/36 56/81/37
f 56/81/37 48/80/36 47/75/31 58/74/30
f 66/82/38 51/83/38 52/84/38 68/85/38
f 64/86/38 49/78/34 56/81/37 61/87/38
f 63/88/38 58/74/30 50/77/33 59/89/38
f 46/90/38 57/91/38 59/92/38 42/93/38
f 41/94/38 64/95/38 55/96/38 45/97/38
f 45/97/38 55/96/38 57/91/38 46/90/38
f 66/98/39 61/87/39 56/81/39 51/99/39
f 67/100/40 62/101/40 57/91/40 54/102/40
f 51/99/41 56/81/41 58/74/41 52/103/41
f 54/102/42 57/91/42 55/96/42 53/104/42
f 52/103/40 58/74/40 63/88/40 68/105/40
f 68/105/40 63/88/40 62/101/40 67/100/40
f 53/104/39 55/96/39 60/106/39 65/107/39
f 65/107/39 60/106/39 61/87/39 66/98/39
f 64/86/38 61/87/38 60/106/38 55/96/38
f 20/34/9 21/14/9 24/24/9 15/23/9
f 53/108/38 65/109/38 67/110/38 54/111/38
f 65/112/38 66/113/38 68/114/38 67/115/38
f 70/116/43 79/117/43 74/118/43
f 37/119/44 38/120/45 39/121/14 40/122/14
f 73/123/43 80/124/43 69/125/43
f 79/126/43 78/127/46 77/128/47 80/129/43
f 36/130/23 38/131/45 37/132/44
f 78/133/46 76/134/48 77/135/47
f 79/117/43 80/124/43 73/123/43 74/118/43
f 41/94/49 69/136/49 80/137/50 64/95/50
f 42/93/51 70/138/51 74/139/52 46/90/52
f 44/76/53 72/140/53 78/133/54 50/77/54
f 43/79/55 71/141/55 76/134/48 48/80/56
f 45/97/57 73/142/57 69/136/58 41/94/58
f 46/90/52 74/139/52 73/142/57 45/97/57
f 47/75/56 75/143/59 72/140/53 44/76/53
f 49/78/60 77/135/60 71/141/55 43/79/55
f 50/77/54 78/133/54 79/144/61 59/89/61
f 59/92/61 79/145/61 70/138/62 42/93/62
f 8/57/22 7/62/22 35/63/26 36/58/23
f 48/80/56 76/134/48 75/143/59 47/75/56
f 64/86/50 80/146/50 77/135/60 49/78/60
f 62/101/38 63/88/38 59/92/38 57/91/38
f 84/147/14 92/148/14 96/149/14 88/150/14
f 87/151/14 95/152/14 91/153/14 83/154/14
f 85/155/14 81/156/14 89/157/14 93/158/14
f 82/159/14 90/160/14 92/148/14 84/147/14
f 82/159/14 86/161/14 94/162/14 90/160/14
f 88/150/14 96/149/14 95/152/14 87/151/14
f 86/161/14 85/155/14 93/158/14 94/162/14
f 81/156/14 83/154/14 91/153/14 89/157/14
f 100/163/9 99/164/9 107/165/9 108/166/9
f 104/167/9 101/168/9 109/169/9 112/170/9
f 103/171/9 111/172/9 110/173/9 102/174/9
f 98/175/9 100/163/9 108/166/9 106/176/9
f 98/175/9 106/176/9 105/177/9 97/178/9
f 99/164/9 104/167/9 112/170/9 107/165/9
f 97/178/9 105/177/9 111/172/9 103/171/9
f 102/174/9 110/173/9 109/169/9 101/168/9
f 93/158/63 89/157/63 110/173/63 111/172/63
f 85/155/64 86/161/64 97/178/64 103/171/64
f 94/162/63 93/158/63 111/172/63 105/177/63
f 87/151/63 83/154/63 101/168/63 104/167/63
f 91/153/64 95/152/64 112/170/64 109/169/64
f 88/150/63 87/151/63 104/167/63 99/164/63
f 86/161/64 82/159/64 98/175/64 97/178/64
f 95/152/64 96/149/64 107/165/64 112/170/64
f 90/160/63 94/162/63 105/177/63 106/176/63
f 84/147/63 88/150/63 99/164/63 100/163/63
f 96/149/64 92/148/64 108/166/64 107/165/64
f 82/159/65 84/147/65 100/163/65 98/175/65
f 92/148/66 90/160/66 106/176/66 108/166/66
f 83/154/66 81/156/66 102/174/66 101/168/66
f 89/157/65 91/153/65 109/169/65 110/173/65
f 81/156/64 85/155/64 103/171/64 102/174/64
f 116/179/43 120/180/43 128/181/43 124/182/43
f 119/183/43 115/184/43 123/185/43 127/186/43
f 117/187/43 125/188/43 121/189/43 113/190/43
f 114/191/43 116/179/43 124/182/43 122/192/43
f 114/191/43 122/192/43 126/193/43 118/194/43
f 120/180/43 119/183/43 127/186/43 128/181/43
f 118/194/43 126/193/43 125/188/43 117/187/43
f 113/190/43 121/189/43 123/185/43 115/184/43
f 132/195/38 140/196/38 139/197/38 131/198/38
f 136/199/38 144/200/38 141/201/38 133/202/38
f 135/203/38 134/204/38 142/205/38 143/206/38
f 130/207/38 138/208/38 140/196/38 132/195/38
f 130/207/38 129/209/38 137/210/38 138/208/38
f 131/198/38 139/197/38 144/200/38 136/199/38
f 129/209/38 135/203/38 143/206/38 137/210/38
f 134/204/38 133/202/38 141/201/38 142/205/38
f 125/188/63 143/206/63 142/205/63 121/189/63
f 117/187/64 135/203/64 129/209/64 118/194/64
f 126/193/63 137/210/63 143/206/63 125/188/63
f 119/183/63 136/199/63 133/202/63 115/184/63
f 123/185/64 141/201/64 144/200/64 127/186/64
f 120/180/63 131/198/63 136/199/63 119/183/63
f 118/194/64 129/209/64 130/207/64 114/191/64
f 127/186/64 144/200/64 139/197/64 128/181/64
f 122/192/63 138/208/63 137/210/63 126/193/63
f 116/179/63 132/195/63 131/198/63 120/180/63
f 128/181/64 139/197/64 140/196/64 124/182/64
f 114/191/67 130/207/67 132/195/67 116/179/67
f 124/182/68 140/196/68 138/208/68 122/192/68
f 115/184/68 133/202/68 134/204/68 113/190/68
f 121/189/67 142/205/67 141/201/67 123/185/67
f 113/190/64 134/204/64 135/203/64 117/187/64
f 145/211/69 146/212/69 148/213/70 147/214/70
f 147/214/70 148/213/70 150/215/71 149/216/71
f 149/216/71 150/215/71 152/217/72 151/218/72
f 151/218/72 152/217/72 154/219/73 153/220/73
f 154/221/64 152/222/64 150/223/64
f 153/220/73 154/219/73 156/224/74 155/225/74
f 155/225/74 156/224/74 146/226/69 145/227/69
f 151/228/63 153/229/63 155/230/63
f 29/231/14 40/232/14 33/45/14
f 40/232/14 39/43/14 33/45/14
f 39/43/14 30/233/14 34/44/14
f 35/234/26 32/235/75 38/131/45
f 37/132/44 31/236/76 36/130/23
f 36/130/23 35/234/26 38/131/45
f 78/133/46 72/140/77 75/143/59
f 76/134/48 71/141/78 77/135/47
f 78/133/46 75/143/59 76/134/48
f 150/223/64 148/237/64 146/238/64
f 146/238/64 156/239/64 150/223/64
f 156/239/64 154/221/64 150/223/64
f 155/230/63 145/240/63 147/241/63
f 147/241/63 149/242/63 155/230/63
f 149/242/63 151/228/63 155/230/63
