# Blender v2.82 (sub 7) OBJ File: 'WallSign1.blend'
# www.blender.org
mtllib WallSign1.mtl
o WallSign_Cube.001
v 0.341308 -0.220000 0.050000
v 0.326785 -0.250000 0.050000
v 0.363094 -0.200000 0.050000
v 0.341308 0.220000 0.050000
v 0.326785 0.250000 0.050000
v 0.363094 0.200000 0.050000
v 0.315125 -0.220000 0.050000
v 0.325598 -0.198367 0.050000
v 0.341308 -0.183944 0.050000
v 0.341308 0.183945 0.050000
v 0.325598 0.198367 0.050000
v 0.315125 0.220000 0.050000
v 0.315125 -0.220000 0.025000
v 0.325598 -0.198367 0.025000
v 0.341308 -0.183944 0.025000
v 0.341308 0.183945 0.025000
v 0.325598 0.198367 0.025000
v 0.315125 0.220000 0.025000
v -0.341308 -0.220000 0.050000
v -0.326785 -0.250000 0.050000
v -0.363094 -0.200000 0.050000
v -0.341308 0.220000 0.050000
v -0.326785 0.250000 0.050000
v -0.363094 0.200000 0.050000
v -0.315125 -0.220000 0.050000
v -0.325598 -0.198367 0.050000
v -0.341308 -0.183944 0.050000
v -0.341308 0.183945 0.050000
v -0.325598 0.198367 0.050000
v -0.315125 0.220000 0.050000
v -0.315125 -0.220000 0.025000
v -0.325598 -0.198367 0.025000
v -0.341308 -0.183944 0.025000
v -0.341308 0.183945 0.025000
v -0.325598 0.198367 0.025000
v -0.315125 0.220000 0.025000
v -0.216972 0.220000 0.050000
v 0.216972 0.220000 0.050000
v 0.225000 0.250000 0.050000
v -0.225000 0.250000 0.050000
v -0.216972 0.220000 0.025000
v 0.216972 0.220000 0.025000
v -0.216972 -0.220000 0.025000
v 0.216972 -0.220000 0.025000
v -0.216972 -0.220000 0.050000
v 0.216972 -0.220000 0.050000
v -0.225000 -0.250000 0.050000
v 0.225000 -0.250000 0.050000
v 0.341308 -0.220000 -0.050000
v 0.326785 -0.250000 -0.050000
v 0.363094 -0.200000 -0.050000
v 0.341308 0.220000 -0.050000
v 0.326785 0.250000 -0.050000
v 0.363094 0.200000 -0.050000
v -0.341308 -0.220000 -0.050000
v -0.326785 -0.250000 -0.050000
v -0.363094 -0.200000 -0.050000
v -0.341308 0.220000 -0.050000
v -0.326785 0.250000 -0.050000
v -0.363094 0.200000 -0.050000
v 0.225000 0.250000 -0.050000
v -0.225000 0.250000 -0.050000
v -0.225000 -0.250000 -0.050000
v 0.225000 -0.250000 -0.050000
vt 0.031012 0.928340
vt 0.031944 0.927510
vt 0.032700 0.928259
vt 0.031911 0.928902
vt 0.029741 0.927566
vt 0.031008 0.926606
vt 0.049364 0.925907
vt 0.032782 0.926559
vt 0.031924 0.925172
vt 0.050202 0.924503
vt 0.050307 0.926947
vt 0.051268 0.925937
vt 0.051358 0.927787
vt 0.052673 0.926932
vt 0.048809 0.927031
vt 0.033390 0.927519
vt 0.049499 0.927812
vt 0.050382 0.928489
vt 0.967756 0.035480
vt 0.967756 0.035480
vt 0.969807 0.036892
vt 0.969807 0.036892
vt 0.947211 0.037484
vt 0.947211 0.037484
vt 0.948872 0.036030
vt 0.948872 0.036030
vt 0.971241 0.038899
vt 0.971241 0.038899
vt 0.945136 0.077810
vt 0.946541 0.079749
vt 0.946541 0.079749
vt 0.945136 0.077810
vt 0.030913 0.964742
vt 0.032001 0.964180
vt 0.032763 0.964838
vt 0.031933 0.965656
vt 0.030913 0.966637
vt 0.029505 0.965582
vt 0.049251 0.966967
vt 0.050120 0.968366
vt 0.031915 0.968135
vt 0.032807 0.966695
vt 0.050193 0.965954
vt 0.051188 0.966931
vt 0.051222 0.964937
vt 0.052673 0.965833
vt 0.033474 0.965720
vt 0.048657 0.965811
vt 0.049472 0.965201
vt 0.049969 0.964311
vt 0.945881 0.039285
vt 0.945632 0.052126
vt 0.945632 0.052126
vt 0.945881 0.039285
vt 0.967145 0.083938
vt 0.969454 0.082723
vt 0.969454 0.082723
vt 0.967145 0.083938
vt 0.948129 0.081209
vt 0.948129 0.081209
vt 0.971241 0.080738
vt 0.971241 0.080738
vt 0.945384 0.064968
vt 0.945384 0.064968
vt 0.030979 0.940474
vt 0.031941 0.940661
vt 0.228969 0.179092
vt 0.228969 0.206965
vt 0.204319 0.176360
vt 0.157750 0.179092
vt 0.159389 0.177999
vt 0.182400 0.176360
vt 0.029584 0.952910
vt 0.030946 0.952608
vt 0.971241 0.052845
vt 0.971241 0.052845
vt 0.050245 0.940429
vt 0.051313 0.940171
vt 0.052673 0.952866
vt 0.051267 0.952554
vt 0.052673 0.939899
vt 0.050107 0.952370
vt 0.971241 0.066791
vt 0.971241 0.066791
vt 0.029663 0.940238
vt 0.105583 0.899921
vt 0.105583 0.100079
vt 0.894417 0.100079
vt 0.894417 0.899920
vt 0.031971 0.952420
vt 0.029663 0.940238
vt 0.052673 0.939899
vt 0.050202 0.924503
vt 0.226237 0.209697
vt 0.204319 0.209697
vt 0.227330 0.208058
vt 0.226237 0.176360
vt 0.227330 0.177999
vt 0.160482 0.176360
vt 0.182400 0.209697
vt 0.157750 0.206965
vt 0.160482 0.209697
vt 0.159389 0.208058
vt 0.029584 0.952910
vt 0.029505 0.965582
vt 0.030913 0.966637
vt 0.031915 0.968135
vt 0.050120 0.968366
vt 0.052673 0.952866
vt 0.051188 0.966931
vt 0.052673 0.965833
vt 0.031008 0.926606
vt 0.029741 0.927566
vt 0.031924 0.925172
vt 0.052673 0.926932
vt 0.051268 0.925937
vn -0.5312 0.8473 0.0000
vn -0.8024 0.5968 0.0000
vn 0.0000 0.0000 1.0000
vn -0.9155 0.4023 0.0000
vn -0.9155 -0.4023 0.0000
vn -0.8024 -0.5968 0.0000
vn -0.5312 -0.8473 0.0000
vn 0.9155 -0.4023 0.0000
vn 0.8024 -0.5968 0.0000
vn 0.8024 0.5968 0.0000
vn 0.9155 0.4023 0.0000
vn 0.5312 -0.8473 0.0000
vn 0.5312 0.8473 0.0000
vn 0.0000 1.0000 0.0000
vn 0.0000 -1.0000 0.0000
vn 0.0000 0.0000 -1.0000
usemtl Sign_Mat
s 1
f 7/1/1 8/2/2 14/3/2 13/4/1
f 8/2/3 7/1/3 2/5/3 1/6/3
f 10/7/3 9/8/3 3/9/3 6/10/3
f 11/11/3 10/7/3 6/10/3 4/12/3
f 9/8/3 8/2/3 1/6/3 3/9/3
f 12/13/3 11/11/3 4/12/3 5/14/3
f 9/8/4 10/7/5 16/15/5 15/16/4
f 10/7/5 11/11/6 17/17/6 16/15/5
f 8/2/2 9/8/4 15/16/4 14/3/2
f 11/11/6 12/13/7 18/18/7 17/17/6
f 51/19/8 3/20/8 1/21/9 49/22/9
f 52/23/10 4/24/10 6/25/11 54/26/11
f 54/26/11 6/25/11 3/20/8 51/19/8
f 49/22/9 1/21/9 2/27/12 50/28/12
f 59/29/1 58/30/2 22/31/2 23/32/1
f 25/33/13 31/34/13 32/35/10 26/36/10
f 26/36/3 19/37/3 20/38/3 25/33/3
f 28/39/3 24/40/3 21/41/3 27/42/3
f 29/43/3 22/44/3 24/40/3 28/39/3
f 27/42/3 21/41/3 19/37/3 26/36/3
f 30/45/3 23/46/3 22/44/3 29/43/3
f 27/42/11 33/47/11 34/48/8 28/39/8
f 28/39/8 34/48/8 35/49/9 29/43/9
f 26/36/10 32/35/10 33/47/11 27/42/11
f 29/43/9 35/49/9 36/50/12 30/45/12
f 53/51/13 61/52/14 39/53/14 5/54/13
f 57/55/5 55/56/6 19/57/6 21/58/5
f 58/30/2 60/59/4 24/60/4 22/31/2
f 60/59/4 57/55/5 21/58/5 24/60/4
f 55/56/6 56/61/7 20/62/7 19/57/6
f 62/63/14 59/29/1 23/32/1 40/64/14
f 46/65/14 7/1/1 13/4/1 44/66/14
f 15/67/3 16/68/3 44/69/3
f 33/70/3 32/71/3 43/72/3
f 47/73/3 45/74/3 25/33/3 20/38/3
f 48/75/15 64/76/15 50/28/12 2/27/12
f 42/77/15 18/18/7 12/13/7 38/78/15
f 40/79/3 23/46/3 30/45/3 37/80/3
f 5/14/3 39/81/3 38/78/3 12/13/3
f 39/81/3 40/79/3 37/80/3 38/78/3
f 36/50/12 41/82/15 37/80/15 30/45/12
f 41/82/15 42/77/15 38/78/15 37/80/15
f 61/52/14 62/63/14 40/64/14 39/53/14
f 20/62/7 56/61/7 63/83/15 47/84/15
f 2/5/3 7/1/3 46/65/3 48/85/3
f 48/85/3 46/65/3 45/74/3 47/73/3
f 41/86/3 43/87/3 44/88/3 42/89/3
f 25/33/13 45/74/14 43/90/14 31/34/13
f 45/74/14 46/65/14 44/66/14 43/90/14
f 47/84/15 63/83/15 64/76/15 48/75/15
f 64/91/16 61/92/16 54/93/16
f 53/51/13 5/54/13 4/24/10 52/23/10
f 18/94/3 42/95/3 17/96/3
f 42/95/3 44/69/3 16/68/3
f 17/96/3 42/95/3 16/68/3
f 44/69/3 13/97/3 14/98/3
f 14/98/3 15/67/3 44/69/3
f 32/71/3 31/99/3 43/72/3
f 43/72/3 41/100/3 34/101/3
f 41/100/3 36/102/3 35/103/3
f 35/103/3 34/101/3 41/100/3
f 34/101/3 33/70/3 43/72/3
f 63/104/16 56/105/16 55/106/16
f 55/106/16 57/107/16 63/104/16
f 57/107/16 60/108/16 62/109/16
f 58/110/16 59/111/16 62/109/16
f 57/107/16 62/109/16 63/104/16
f 60/108/16 58/110/16 62/109/16
f 64/91/16 63/104/16 62/109/16
f 49/112/16 50/113/16 64/91/16
f 54/93/16 51/114/16 64/91/16
f 51/114/16 49/112/16 64/91/16
f 61/92/16 53/115/16 52/116/16
f 52/116/16 54/93/16 61/92/16
f 62/109/16 61/92/16 64/91/16
