# This file uses meters as units for non-parametric coordinates.

v 0.420807 7.442514 -0.051003
v 0.420807 7.442514 0.051003
v -0.423691 7.442514 -0.051003
v -0.423691 7.442514 0.051003
v -0.423691 7.544522 -0.051003
v -0.423691 7.544522 0.051003
v 0.420807 7.544522 -0.051003
v 0.420807 7.544522 0.051003
v 0.420807 6.822878 -0.051003
v 0.420807 6.822878 0.051003
v -0.423691 6.822878 -0.051003
v -0.423691 6.822878 0.051003
v -0.423691 6.924886 -0.051003
v -0.423691 6.924886 0.051003
v 0.420807 6.924886 -0.051003
v 0.420807 6.924886 0.051003
v 0.420807 6.215310 -0.051003
v 0.420807 6.215310 0.051003
v -0.423691 6.215310 -0.051003
v -0.423691 6.215310 0.051003
v -0.423691 6.317318 -0.051003
v -0.423691 6.317318 0.051003
v 0.420807 6.317318 -0.051003
v 0.420807 6.317318 0.051003
v 0.420807 5.578832 -0.051003
v 0.420807 5.578832 0.051003
v -0.423691 5.578832 -0.051003
v -0.423691 5.578832 0.051003
v -0.423691 5.680839 -0.051003
v -0.423691 5.680839 0.051003
v 0.420807 5.680839 -0.051003
v 0.420807 5.680839 0.051003
v 0.420807 4.969863 -0.051003
v 0.420807 4.969863 0.051003
v -0.423691 4.969863 -0.051003
v -0.423691 4.969863 0.051003
v -0.423691 5.071871 -0.051003
v -0.423691 5.071871 0.051003
v 0.420807 5.071871 -0.051003
v 0.420807 5.071871 0.051003
v 0.420807 4.335519 -0.051003
v 0.420807 4.335519 0.051003
v -0.423691 4.335519 -0.051003
v -0.423691 4.335519 0.051003
v -0.423691 4.437527 -0.051003
v -0.423691 4.437527 0.051003
v 0.420807 4.437527 -0.051003
v 0.420807 4.437527 0.051003
v 0.435394 3.714622 -0.051003
v 0.435394 3.714622 0.051003
v -0.438278 3.714622 -0.051003
v -0.438278 3.714622 0.051003
v -0.438278 3.816630 -0.051003
v -0.438278 3.816630 0.051003
v 0.435394 3.816630 -0.051003
v 0.435394 3.816630 0.051003
v 0.420807 8.060363 -0.051003
v 0.420807 8.060363 0.051003
v -0.423691 8.060363 -0.051003
v -0.423691 8.060363 0.051003
v -0.423691 8.162371 -0.051003
v -0.423691 8.162371 0.051003
v 0.420807 8.162371 -0.051003
v 0.420807 8.162371 0.051003
v -0.585686 0.000000 -0.084328
v -0.585686 0.000000 0.084328
v -0.585686 9.292870 -0.084328
v -0.585686 9.292870 0.084328
v -0.417030 9.292870 -0.084328
v -0.417030 9.292870 0.084328
v -0.417030 0.000000 -0.084328
v -0.417030 0.000000 0.084328
v 0.417030 0.000000 -0.084328
v 0.417030 0.000000 0.084328
v 0.417030 9.292870 -0.084328
v 0.417030 9.292870 0.084328
v 0.585686 9.292870 -0.084328
v 0.585686 9.292870 0.084328
v 0.585686 0.000000 -0.084328
v 0.585686 0.000000 0.084328
v 0.420807 2.515516 -0.051003
v 0.420807 2.515516 0.051003
v -0.423691 2.515516 -0.051003
v -0.423691 2.515516 0.051003
v -0.423691 2.617523 -0.051003
v -0.423691 2.617523 0.051003
v 0.420807 2.617523 -0.051003
v 0.420807 2.617523 0.051003
v 0.420807 1.895879 -0.051003
v 0.420807 1.895879 0.051003
v -0.423691 1.895879 -0.051003
v -0.423691 1.895879 0.051003
v -0.423691 1.997887 -0.051003
v -0.423691 1.997887 0.051003
v 0.420807 1.997887 -0.051003
v 0.420807 1.997887 0.051003
v 0.420807 1.288311 -0.051003
v 0.420807 1.288311 0.051003
v -0.423691 1.288311 -0.051003
v -0.423691 1.288311 0.051003
v -0.423691 1.390319 -0.051003
v -0.423691 1.390319 0.051003
v 0.420807 1.390319 -0.051003
v 0.420807 1.390319 0.051003
v 0.420807 0.651833 -0.051003
v 0.420807 0.651833 0.051003
v -0.423691 0.651833 -0.051003
v -0.423691 0.651833 0.051003
v -0.423691 0.753840 -0.051003
v -0.423691 0.753840 0.051003
v 0.420807 0.753840 -0.051003
v 0.420807 0.753840 0.051003
v 0.420807 0.042864 -0.051003
v 0.420807 0.042864 0.051003
v -0.423691 0.042864 -0.051003
v -0.423691 0.042864 0.051003
v -0.423691 0.144872 -0.051003
v -0.423691 0.144872 0.051003
v 0.420807 0.144872 -0.051003
v 0.420807 0.144872 0.051003
v 0.420807 3.133364 -0.051003
v 0.420807 3.133364 0.051003
v -0.423691 3.133364 -0.051003
v -0.423691 3.133364 0.051003
v -0.423691 3.235372 -0.051003
v -0.423691 3.235372 0.051003
v 0.420807 3.235372 -0.051003
v 0.420807 3.235372 0.051003
v 0.420807 8.683274 -0.051003
v 0.420807 8.683274 0.051003
v -0.423691 8.683274 -0.051003
v -0.423691 8.683274 0.051003
v -0.423691 8.785282 -0.051003
v -0.423691 8.785282 0.051003
v 0.420807 8.785282 -0.051003
v 0.420807 8.785282 0.051003
vt 0.168572 0.397903
vt 0.168572 0.397903
vt 0.168572 0.397903
vt 0.168572 0.397903
vt 0.299944 0.397735
vt 0.299944 0.397735
vt 0.299944 0.397735
vt 0.299944 0.397735
vt 0.239066 0.397903
vt 0.239066 0.397903
vt 0.239066 0.397903
vt 0.239066 0.397903
vt 0.239066 0.397903
vt 0.239066 0.397903
vt 0.239066 0.397903
vt 0.239066 0.397903
vt 0.168572 0.397903
vt 0.168572 0.397903
vt 0.168572 0.397903
vt 0.168572 0.397903
vt 0.299944 0.397735
vt 0.299944 0.397735
vt 0.299944 0.397735
vt 0.299944 0.397735
vt 0.299944 0.397735
vt 0.299944 0.397735
vt 0.239066 0.397903
vt 0.239066 0.397903
vt 0.239066 0.397903
vt 0.239066 0.397903
vt 0.168572 0.397903
vt 0.168572 0.397903
vt 0.168572 0.397903
vt 0.168572 0.397903
vt 0.299944 0.397735
vt 0.299944 0.397735
vt 0.299944 0.397735
vt 0.299944 0.397735
vt 0.239066 0.397903
vt 0.239066 0.397903
vt 0.239066 0.397903
vt 0.239066 0.397903
vt 0.239066 0.397903
vt 0.239066 0.397903
vt 0.239066 0.397903
vt 0.239066 0.397903
vt 0.168572 0.397903
vt 0.168572 0.397903
vt 0.168572 0.397903
vt 0.168572 0.397903
vt 0.299944 0.397735
vt 0.299944 0.397735
vt 0.299944 0.397735
vt 0.299944 0.397735
vt 0.239066 0.397903
vt 0.239066 0.397903
vt 0.239066 0.397903
vt 0.239066 0.397903
vt 0.239066 0.397903
vt 0.239066 0.397903
vt 0.239066 0.397903
vt 0.239066 0.397903
vt 0.168572 0.397903
vt 0.168572 0.397903
vt 0.168572 0.397903
vt 0.168572 0.397903
vt 0.299944 0.397735
vt 0.299944 0.397735
vt 0.299944 0.397735
vt 0.299944 0.397735
vt 0.239066 0.397903
vt 0.239066 0.397903
vt 0.239066 0.397903
vt 0.239066 0.397903
vt 0.239066 0.397903
vt 0.239066 0.397903
vt 0.239066 0.397903
vt 0.239066 0.397903
vt 0.168572 0.397903
vt 0.168572 0.397903
vt 0.168572 0.397903
vt 0.168572 0.397903
vt 0.299944 0.397735
vt 0.299944 0.397735
vt 0.299944 0.397735
vt 0.299944 0.397735
vt 0.239066 0.397903
vt 0.239066 0.397903
vt 0.239066 0.397903
vt 0.239066 0.397903
vt 0.239066 0.397903
vt 0.239066 0.397903
vt 0.239066 0.397903
vt 0.239066 0.397903
vt 0.168572 0.397903
vt 0.168572 0.397903
vt 0.168572 0.397903
vt 0.168572 0.397903
vt 0.168572 0.397903
vt 0.168572 0.397903
vt 0.168572 0.397903
vt 0.168572 0.397903
vt 0.168572 0.397903
vt 0.168572 0.397903
vt 0.299944 0.397735
vt 0.299944 0.397735
vt 0.299944 0.397735
vt 0.299944 0.397735
vt 0.168572 0.397903
vt 0.168572 0.397903
vt 0.168572 0.397903
vt 0.168572 0.397903
vt 0.168572 0.397903
vt 0.168572 0.397903
vt 0.239066 0.397903
vt 0.239066 0.397903
vt 0.239066 0.397903
vt 0.239066 0.397903
vt 0.239066 0.397903
vt 0.239066 0.397903
vt 0.239066 0.397903
vt 0.239066 0.397903
vt 0.168572 0.397903
vt 0.168572 0.397903
vt 0.168572 0.397903
vt 0.168572 0.397903
vt 0.299944 0.397735
vt 0.299944 0.397735
vt 0.299944 0.397735
vt 0.299944 0.397735
vt 0.239066 0.397903
vt 0.239066 0.397903
vt 0.239066 0.397903
vt 0.239066 0.397903
vt 0.239066 0.397903
vt 0.239066 0.397903
vt 0.239066 0.397903
vt 0.239066 0.397903
vt 0.168572 0.397903
vt 0.168572 0.397903
vt 0.168572 0.397903
vt 0.168572 0.397903
vt 0.331862 0.397903
vt 0.331862 0.397903
vt 0.331862 0.397903
vt 0.331862 0.397903
vt 0.168572 0.397903
vt 0.168572 0.397903
vt 0.168572 0.397903
vt 0.168572 0.397903
vt 0.111488 0.397903
vt 0.111488 0.397903
vt 0.111488 0.397903
vt 0.111488 0.397903
vt 0.239066 0.397903
vt 0.239066 0.397903
vt 0.239066 0.397903
vt 0.239066 0.397903
vt 0.239066 0.397903
vt 0.239066 0.397903
vt 0.239066 0.397903
vt 0.239066 0.397903
vt 0.171439 0.397870
vt 0.171439 0.397870
vt 0.171439 0.397870
vt 0.171439 0.397870
vt 0.328143 0.397885
vt 0.328143 0.397885
vt 0.328143 0.397885
vt 0.328143 0.397885
vt 0.210199 0.397890
vt 0.210199 0.397890
vt 0.210199 0.397890
vt 0.210199 0.397890
vt 0.108419 0.397906
vt 0.108419 0.397906
vt 0.108419 0.397906
vt 0.108419 0.397906
vt 0.233942 0.397906
vt 0.233942 0.397906
vt 0.233942 0.397906
vt 0.233942 0.397906
vt 0.239412 0.397885
vt 0.239412 0.397885
vt 0.239412 0.397885
vt 0.239412 0.397885
vt 0.168572 0.397903
vt 0.168572 0.397903
vt 0.168572 0.397903
vt 0.168572 0.397903
vt 0.299944 0.397735
vt 0.299944 0.397735
vt 0.299944 0.397735
vt 0.299944 0.397735
vt 0.239066 0.397903
vt 0.239066 0.397903
vt 0.239066 0.397903
vt 0.239066 0.397903
vt 0.239066 0.397903
vt 0.239066 0.397903
vt 0.239066 0.397903
vt 0.239066 0.397903
vt 0.168572 0.397903
vt 0.168572 0.397903
vt 0.168572 0.397903
vt 0.168572 0.397903
vt 0.299944 0.397735
vt 0.299944 0.397735
vt 0.299944 0.397735
vt 0.299944 0.397735
vt 0.239066 0.397903
vt 0.239066 0.397903
vt 0.239066 0.397903
vt 0.239066 0.397903
vt 0.239066 0.397903
vt 0.239066 0.397903
vt 0.239066 0.397903
vt 0.239066 0.397903
vt 0.168572 0.397903
vt 0.168572 0.397903
vt 0.168572 0.397903
vt 0.168572 0.397903
vt 0.299944 0.397735
vt 0.299944 0.397735
vt 0.299944 0.397735
vt 0.299944 0.397735
vt 0.239066 0.397903
vt 0.239066 0.397903
vt 0.239066 0.397903
vt 0.239066 0.397903
vt 0.239066 0.397903
vt 0.239066 0.397903
vt 0.239066 0.397903
vt 0.239066 0.397903
vt 0.168572 0.397903
vt 0.168572 0.397903
vt 0.168572 0.397903
vt 0.168572 0.397903
vt 0.299944 0.397735
vt 0.299944 0.397735
vt 0.299944 0.397735
vt 0.299944 0.397735
vt 0.239066 0.397903
vt 0.239066 0.397903
vt 0.239066 0.397903
vt 0.239066 0.397903
vt 0.239066 0.397903
vt 0.239066 0.397903
vt 0.239066 0.397903
vt 0.239066 0.397903
vt 0.168572 0.397903
vt 0.168572 0.397903
vt 0.168572 0.397903
vt 0.168572 0.397903
vt 0.299944 0.397735
vt 0.299944 0.397735
vt 0.299944 0.397735
vt 0.299944 0.397735
vt 0.239066 0.397903
vt 0.239066 0.397903
vt 0.239066 0.397903
vt 0.239066 0.397903
vt 0.239066 0.397903
vt 0.239066 0.397903
vt 0.239066 0.397903
vt 0.239066 0.397903
vt 0.168572 0.397903
vt 0.168572 0.397903
vt 0.168572 0.397903
vt 0.168572 0.397903
vt 0.299944 0.397735
vt 0.299944 0.397735
vt 0.299944 0.397735
vt 0.299944 0.397735
vt 0.239066 0.397903
vt 0.239066 0.397903
vt 0.239066 0.397903
vt 0.239066 0.397903
vt 0.239066 0.397903
vt 0.239066 0.397903
vt 0.239066 0.397903
vt 0.239066 0.397903
vt 0.168572 0.397903
vt 0.168572 0.397903
vt 0.168572 0.397903
vt 0.168572 0.397903
vt 0.299944 0.397735
vt 0.299944 0.397735
vt 0.299944 0.397735
vt 0.299944 0.397735
vt 0.239066 0.397903
vt 0.239066 0.397903
vt 0.239066 0.397903
vt 0.239066 0.397903
vt 0.239066 0.397903
vt 0.239066 0.397903
vt 0.239066 0.397903
vt 0.239066 0.397903
vn 0.000000 -1.000000 0.000000
vn 0.000000 -1.000000 0.000000
vn 0.000000 -1.000000 0.000000
vn 0.000000 -1.000000 0.000000
vn 0.000000 1.000000 0.000000
vn 0.000000 1.000000 0.000000
vn 0.000000 1.000000 0.000000
vn 0.000000 1.000000 0.000000
vn 0.000000 0.000000 1.000000
vn 0.000000 0.000000 1.000000
vn 0.000000 0.000000 1.000000
vn 0.000000 0.000000 1.000000
vn 0.000000 0.000000 -1.000000
vn 0.000000 0.000000 -1.000000
vn 0.000000 0.000000 -1.000000
vn 0.000000 0.000000 -1.000000
vn 0.000000 -1.000000 0.000000
vn 0.000000 -1.000000 0.000000
vn 0.000000 -1.000000 0.000000
vn 0.000000 -1.000000 0.000000
vn 0.000000 0.707097 -0.707117
vn 0.000000 0.707097 -0.707117
vn 0.000000 0.707097 -0.707117
vn 0.000000 0.707097 -0.707117
vn 0.000000 0.707097 -0.707117
vn 0.000000 0.707097 -0.707117
vn 0.000000 0.000000 1.000000
vn 0.000000 0.000000 1.000000
vn 0.000000 0.000000 1.000000
vn 0.000000 0.000000 1.000000
vn 0.000000 -1.000000 0.000000
vn 0.000000 -1.000000 0.000000
vn 0.000000 -1.000000 0.000000
vn 0.000000 -1.000000 0.000000
vn 0.000000 1.000000 0.000000
vn 0.000000 1.000000 0.000000
vn 0.000000 1.000000 0.000000
vn 0.000000 1.000000 0.000000
vn 0.000000 0.000000 1.000000
vn 0.000000 0.000000 1.000000
vn 0.000000 0.000000 1.000000
vn 0.000000 0.000000 1.000000
vn 0.000000 0.000000 -1.000000
vn 0.000000 0.000000 -1.000000
vn 0.000000 0.000000 -1.000000
vn 0.000000 0.000000 -1.000000
vn 0.000000 -1.000000 0.000000
vn 0.000000 -1.000000 0.000000
vn 0.000000 -1.000000 0.000000
vn 0.000000 -1.000000 0.000000
vn 0.000000 1.000000 0.000000
vn 0.000000 1.000000 0.000000
vn 0.000000 1.000000 0.000000
vn 0.000000 1.000000 0.000000
vn 0.000000 0.000000 1.000000
vn 0.000000 0.000000 1.000000
vn 0.000000 0.000000 1.000000
vn 0.000000 0.000000 1.000000
vn 0.000000 0.000000 -1.000000
vn 0.000000 0.000000 -1.000000
vn 0.000000 0.000000 -1.000000
vn 0.000000 0.000000 -1.000000
vn 0.000000 -1.000000 0.000000
vn 0.000000 -1.000000 0.000000
vn 0.000000 -1.000000 0.000000
vn 0.000000 -1.000000 0.000000
vn 0.000000 1.000000 0.000000
vn 0.000000 1.000000 0.000000
vn 0.000000 1.000000 0.000000
vn 0.000000 1.000000 0.000000
vn 0.000000 0.000000 1.000000
vn 0.000000 0.000000 1.000000
vn 0.000000 0.000000 1.000000
vn 0.000000 0.000000 1.000000
vn 0.000000 0.000000 -1.000000
vn 0.000000 0.000000 -1.000000
vn 0.000000 0.000000 -1.000000
vn 0.000000 0.000000 -1.000000
vn 0.000000 -1.000000 0.000000
vn 0.000000 -1.000000 0.000000
vn 0.000000 -1.000000 0.000000
vn 0.000000 -1.000000 0.000000
vn 0.000000 1.000000 0.000000
vn 0.000000 1.000000 0.000000
vn 0.000000 1.000000 0.000000
vn 0.000000 1.000000 0.000000
vn 0.000000 0.000000 1.000000
vn 0.000000 0.000000 1.000000
vn 0.000000 0.000000 1.000000
vn 0.000000 0.000000 1.000000
vn 0.000000 0.000000 -1.000000
vn 0.000000 0.000000 -1.000000
vn 0.000000 0.000000 -1.000000
vn 0.000000 0.000000 -1.000000
vn 0.000000 -1.000000 0.000000
vn 0.000000 -1.000000 0.000000
vn 0.000000 -1.000000 0.000000
vn 0.000000 -1.000000 0.000000
vn -1.000000 0.000000 0.000000
vn -1.000000 0.000000 0.000000
vn -1.000000 0.000000 0.000000
vn -1.000000 0.000000 0.000000
vn -1.000000 0.000000 0.000000
vn -1.000000 0.000000 0.000000
vn 0.000000 1.000000 0.000000
vn 0.000000 1.000000 0.000000
vn 0.000000 1.000000 0.000000
vn 0.000000 1.000000 0.000000
vn 1.000000 0.000000 0.000000
vn 1.000000 0.000000 0.000000
vn 1.000000 0.000000 0.000000
vn 1.000000 0.000000 0.000000
vn 1.000000 0.000000 0.000000
vn 1.000000 0.000000 0.000000
vn 0.000000 0.000000 1.000000
vn 0.000000 0.000000 1.000000
vn 0.000000 0.000000 1.000000
vn 0.000000 0.000000 1.000000
vn 0.000000 0.000000 -1.000000
vn 0.000000 0.000000 -1.000000
vn 0.000000 0.000000 -1.000000
vn 0.000000 0.000000 -1.000000
vn 0.000000 -1.000000 0.000000
vn 0.000000 -1.000000 0.000000
vn 0.000000 -1.000000 0.000000
vn 0.000000 -1.000000 0.000000
vn 0.000000 1.000000 0.000000
vn 0.000000 1.000000 0.000000
vn 0.000000 1.000000 0.000000
vn 0.000000 1.000000 0.000000
vn 0.000000 0.000000 1.000000
vn 0.000000 0.000000 1.000000
vn 0.000000 0.000000 1.000000
vn 0.000000 0.000000 1.000000
vn 0.000000 0.000000 -1.000000
vn 0.000000 0.000000 -1.000000
vn 0.000000 0.000000 -1.000000
vn 0.000000 0.000000 -1.000000
vn -1.000000 0.000000 0.000000
vn -1.000000 0.000000 0.000000
vn -1.000000 0.000000 0.000000
vn -1.000000 0.000000 0.000000
vn 0.000000 1.000000 0.000000
vn 0.000000 1.000000 0.000000
vn 0.000000 1.000000 0.000000
vn 0.000000 1.000000 0.000000
vn 1.000000 0.000000 0.000000
vn 1.000000 0.000000 0.000000
vn 1.000000 0.000000 0.000000
vn 1.000000 0.000000 0.000000
vn 0.000000 -1.000000 0.000000
vn 0.000000 -1.000000 0.000000
vn 0.000000 -1.000000 0.000000
vn 0.000000 -1.000000 0.000000
vn 0.000000 0.000000 1.000000
vn 0.000000 0.000000 1.000000
vn 0.000000 0.000000 1.000000
vn 0.000000 0.000000 1.000000
vn 0.000000 0.000000 -1.000000
vn 0.000000 0.000000 -1.000000
vn 0.000000 0.000000 -1.000000
vn 0.000000 0.000000 -1.000000
vn -1.000000 0.000000 0.000000
vn -1.000000 0.000000 0.000000
vn -1.000000 0.000000 0.000000
vn -1.000000 0.000000 0.000000
vn 0.000000 1.000000 0.000000
vn 0.000000 1.000000 0.000000
vn 0.000000 1.000000 0.000000
vn 0.000000 1.000000 0.000000
vn 1.000000 0.000000 0.000000
vn 1.000000 0.000000 0.000000
vn 1.000000 0.000000 0.000000
vn 1.000000 0.000000 0.000000
vn 0.000000 -1.000000 0.000000
vn 0.000000 -1.000000 0.000000
vn 0.000000 -1.000000 0.000000
vn 0.000000 -1.000000 0.000000
vn 0.000000 0.000000 1.000000
vn 0.000000 0.000000 1.000000
vn 0.000000 0.000000 1.000000
vn 0.000000 0.000000 1.000000
vn 0.000000 0.000000 -1.000000
vn 0.000000 0.000000 -1.000000
vn 0.000000 0.000000 -1.000000
vn 0.000000 0.000000 -1.000000
vn 0.000000 -1.000000 0.000000
vn 0.000000 -1.000000 0.000000
vn 0.000000 -1.000000 0.000000
vn 0.000000 -1.000000 0.000000
vn 0.000000 1.000000 0.000000
vn 0.000000 1.000000 0.000000
vn 0.000000 1.000000 0.000000
vn 0.000000 1.000000 0.000000
vn 0.000000 0.000000 1.000000
vn 0.000000 0.000000 1.000000
vn 0.000000 0.000000 1.000000
vn 0.000000 0.000000 1.000000
vn 0.000000 0.000000 -1.000000
vn 0.000000 0.000000 -1.000000
vn 0.000000 0.000000 -1.000000
vn 0.000000 0.000000 -1.000000
vn 0.000000 -1.000000 0.000000
vn 0.000000 -1.000000 0.000000
vn 0.000000 -1.000000 0.000000
vn 0.000000 -1.000000 0.000000
vn 0.000000 1.000000 0.000000
vn 0.000000 1.000000 0.000000
vn 0.000000 1.000000 0.000000
vn 0.000000 1.000000 0.000000
vn 0.000000 0.000000 1.000000
vn 0.000000 0.000000 1.000000
vn 0.000000 0.000000 1.000000
vn 0.000000 0.000000 1.000000
vn 0.000000 0.000000 -1.000000
vn 0.000000 0.000000 -1.000000
vn 0.000000 0.000000 -1.000000
vn 0.000000 0.000000 -1.000000
vn 0.000000 -1.000000 0.000000
vn 0.000000 -1.000000 0.000000
vn 0.000000 -1.000000 0.000000
vn 0.000000 -1.000000 0.000000
vn 0.000000 1.000000 0.000000
vn 0.000000 1.000000 0.000000
vn 0.000000 1.000000 0.000000
vn 0.000000 1.000000 0.000000
vn 0.000000 0.000000 1.000000
vn 0.000000 0.000000 1.000000
vn 0.000000 0.000000 1.000000
vn 0.000000 0.000000 1.000000
vn 0.000000 0.000000 -1.000000
vn 0.000000 0.000000 -1.000000
vn 0.000000 0.000000 -1.000000
vn 0.000000 0.000000 -1.000000
vn 0.000000 -1.000000 0.000000
vn 0.000000 -1.000000 0.000000
vn 0.000000 -1.000000 0.000000
vn 0.000000 -1.000000 0.000000
vn 0.000000 1.000000 0.000000
vn 0.000000 1.000000 0.000000
vn 0.000000 1.000000 0.000000
vn 0.000000 1.000000 0.000000
vn 0.000000 0.000000 1.000000
vn 0.000000 0.000000 1.000000
vn 0.000000 0.000000 1.000000
vn 0.000000 0.000000 1.000000
vn 0.000000 0.000000 -1.000000
vn 0.000000 0.000000 -1.000000
vn 0.000000 0.000000 -1.000000
vn 0.000000 0.000000 -1.000000
vn 0.000000 -1.000000 0.000000
vn 0.000000 -1.000000 0.000000
vn 0.000000 -1.000000 0.000000
vn 0.000000 -1.000000 0.000000
vn 0.000000 1.000000 0.000000
vn 0.000000 1.000000 0.000000
vn 0.000000 1.000000 0.000000
vn 0.000000 1.000000 0.000000
vn 0.000000 0.000000 1.000000
vn 0.000000 0.000000 1.000000
vn 0.000000 0.000000 1.000000
vn 0.000000 0.000000 1.000000
vn 0.000000 0.000000 -1.000000
vn 0.000000 0.000000 -1.000000
vn 0.000000 0.000000 -1.000000
vn 0.000000 0.000000 -1.000000
vn 0.000000 -1.000000 0.000000
vn 0.000000 -1.000000 0.000000
vn 0.000000 -1.000000 0.000000
vn 0.000000 -1.000000 0.000000
vn 0.000000 1.000000 0.000000
vn 0.000000 1.000000 0.000000
vn 0.000000 1.000000 0.000000
vn 0.000000 1.000000 0.000000
vn 0.000000 0.000000 1.000000
vn 0.000000 0.000000 1.000000
vn 0.000000 0.000000 1.000000
vn 0.000000 0.000000 1.000000
vn 0.000000 0.000000 -1.000000
vn 0.000000 0.000000 -1.000000
vn 0.000000 0.000000 -1.000000
vn 0.000000 0.000000 -1.000000
vn 0.000000 -1.000000 0.000000
vn 0.000000 -1.000000 0.000000
vn 0.000000 -1.000000 0.000000
vn 0.000000 -1.000000 0.000000
vn 0.000000 1.000000 0.000000
vn 0.000000 1.000000 0.000000
vn 0.000000 1.000000 0.000000
vn 0.000000 1.000000 0.000000
vn 0.000000 0.000000 1.000000
vn 0.000000 0.000000 1.000000
vn 0.000000 0.000000 1.000000
vn 0.000000 0.000000 1.000000
vn 0.000000 0.000000 -1.000000
vn 0.000000 0.000000 -1.000000
vn 0.000000 0.000000 -1.000000
vn 0.000000 0.000000 -1.000000
s off
f 3/1/1 1/2/2 2/3/3 4/4/4
f 7/5/5 5/6/6 6/7/7 8/8/8
f 4/9/9 2/10/10 8/11/11 6/12/12
f 5/13/13 7/14/14 1/15/15 3/16/16
f 11/17/17 9/18/18 10/19/19 12/20/20
f 13/21/21 14/22/22 16/23/23 15/24/24 9/25/25 11/26/26
f 12/27/27 10/28/28 16/29/29 14/30/30
f 19/31/31 17/32/32 18/33/33 20/34/34
f 23/35/35 21/36/36 22/37/37 24/38/38
f 20/39/39 18/40/40 24/41/41 22/42/42
f 21/43/43 23/44/44 17/45/45 19/46/46
f 27/47/47 25/48/48 26/49/49 28/50/50
f 31/51/51 29/52/52 30/53/53 32/54/54
f 28/55/55 26/56/56 32/57/57 30/58/58
f 29/59/59 31/60/60 25/61/61 27/62/62
f 35/63/63 33/64/64 34/65/65 36/66/66
f 39/67/67 37/68/68 38/69/69 40/70/70
f 36/71/71 34/72/72 40/73/73 38/74/74
f 37/75/75 39/76/76 33/77/77 35/78/78
f 43/79/79 41/80/80 42/81/81 44/82/82
f 47/83/83 45/84/84 46/85/85 48/86/86
f 44/87/87 42/88/88 48/89/89 46/90/90
f 45/91/91 47/92/92 41/93/93 43/94/94
f 51/95/95 49/96/96 50/97/97 52/98/98
f 51/99/99 52/100/100 53/101/101
f 53/102/102 52/103/103 54/104/104
f 55/105/105 53/106/106 54/107/107 56/108/108
f 55/109/109 56/110/110 49/111/111
f 49/112/112 56/113/113 50/114/114
f 52/115/115 50/116/116 56/117/117 54/118/118
f 53/119/119 55/120/120 49/121/121 51/122/122
f 59/123/123 57/124/124 58/125/125 60/126/126
f 63/127/127 61/128/128 62/129/129 64/130/130
f 60/131/131 58/132/132 64/133/133 62/134/134
f 61/135/135 63/136/136 57/137/137 59/138/138
f 67/139/139 65/140/140 66/141/141 68/142/142
f 69/143/143 67/144/144 68/145/145 70/146/146
f 71/147/147 69/148/148 70/149/149 72/150/150
f 65/151/151 71/152/152 72/153/153 66/154/154
f 68/155/155 66/156/156 72/157/157 70/158/158
f 69/159/159 71/160/160 65/161/161 67/162/162
f 75/163/163 73/164/164 74/165/165 76/166/166
f 75/167/167 76/168/168 78/169/169 77/170/170
f 79/171/171 77/172/172 78/173/173 80/174/174
f 74/175/175 73/176/176 79/177/177 80/178/178
f 74/179/179 80/180/180 78/181/181 76/182/182
f 75/183/183 77/184/184 79/185/185 73/186/186
f 83/187/187 81/188/188 82/189/189 84/190/190
f 87/191/191 85/192/192 86/193/193 88/194/194
f 84/195/195 82/196/196 88/197/197 86/198/198
f 85/199/199 87/200/200 81/201/201 83/202/202
f 91/203/203 89/204/204 90/205/205 92/206/206
f 95/207/207 93/208/208 94/209/209 96/210/210
f 92/211/211 90/212/212 96/213/213 94/214/214
f 93/215/215 95/216/216 89/217/217 91/218/218
f 99/219/219 97/220/220 98/221/221 100/222/222
f 103/223/223 101/224/224 102/225/225 104/226/226
f 100/227/227 98/228/228 104/229/229 102/230/230
f 101/231/231 103/232/232 97/233/233 99/234/234
f 107/235/235 105/236/236 106/237/237 108/238/238
f 111/239/239 109/240/240 110/241/241 112/242/242
f 108/243/243 106/244/244 112/245/245 110/246/246
f 109/247/247 111/248/248 105/249/249 107/250/250
f 115/251/251 113/252/252 114/253/253 116/254/254
f 119/255/255 117/256/256 118/257/257 120/258/258
f 116/259/259 114/260/260 120/261/261 118/262/262
f 117/263/263 119/264/264 113/265/265 115/266/266
f 123/267/267 121/268/268 122/269/269 124/270/270
f 127/271/271 125/272/272 126/273/273 128/274/274
f 124/275/275 122/276/276 128/277/277 126/278/278
f 125/279/279 127/280/280 121/281/281 123/282/282
f 131/283/283 129/284/284 130/285/285 132/286/286
f 135/287/287 133/288/288 134/289/289 136/290/290
f 132/291/291 130/292/292 136/293/293 134/294/294
f 133/295/295 135/296/296 129/297/297 131/298/298
